<?xml version="1.0" encoding="utf-8"?>
<!-- Generator: Adobe Illustrator 27.5.0, SVG Export Plug-In . SVG Version: 6.00 Build 0)  -->
<svg version="1.1" id="Capa_1" xmlns="http://www.w3.org/2000/svg" xmlns:xlink="http://www.w3.org/1999/xlink" x="0px" y="0px"
	 viewBox="0 0 2122 2122" style="enable-background:new 0 0 2122 2122;" xml:space="preserve">
<g>
	<path style="fill:#E6E6E6;" d="M325.936,453.554c2.611-17.05,15.754-30.115,32.709-32.512l67.696-9.569l132.492,161.084
		l-135.736,19.189l-0.755-0.921c-0.175-0.207-0.463-0.287-0.716-0.18c-0.253,0.102-0.41,0.356-0.388,0.626l0.21,2.614
		c0.022,0.27,0.215,0.495,0.477,0.558c0.046,0.012,0.095,0.017,0.144,0.017c0.215,0,0.417-0.11,0.534-0.299l0.723-1.186
		l272.596-38.536c0.008,0,0.013,0,0.02,0l273.015-38.597c0.221-0.029,0.412-0.18,0.494-0.39c0.08-0.21,0.041-0.448-0.1-0.624
		L836.637,353.471l135.737-19.186l132.487,161.084l-71.539,10.114c-0.341,0.046-0.578,0.363-0.531,0.704
		c0.049,0.341,0.348,0.58,0.707,0.528l72.641-10.268c0.003,0,0.005,0,0.005,0l135.829-19.201c0.224-0.032,0.412-0.181,0.495-0.39
		c0.08-0.21,0.044-0.448-0.1-0.624l-132.713-161.357l135.734-19.186l133.196,161.943c0.139,0.166,0.353,0.251,0.57,0.22
		l135.834-19.201c0.221-0.029,0.412-0.18,0.494-0.39c0.08-0.21,0.041-0.448-0.1-0.624l-132.711-161.357l135.734-19.186
		l133.194,161.944c0.137,0.168,0.361,0.258,0.57,0.219l135.795-19.196c0.013,0,0.025-0.003,0.039-0.005l54.083-7.647
		c0.341-0.046,0.577-0.363,0.528-0.704c-0.048-0.344-0.387-0.585-0.704-0.529l-53.737,7.596L1655.684,237.69l135.736-19.189
		l98.355,119.586c7.023,8.538,8.823,19.788,4.816,30.093c-4.01,10.304-12.938,17.381-23.885,18.93
		c-0.341,0.046-0.577,0.363-0.529,0.704c0.046,0.341,0.344,0.563,0.704,0.529l10.383-1.469
		c15.625-2.209,26.543-16.719,24.333-32.346l-20.299-143.6c-2.21-15.627-16.721-26.563-32.346-24.334L256.855,412.224
		c-14.032,1.983-24.602,14.168-24.587,28.343c0,0.176,0.073,0.341,0.2,0.458c0.132,0.12,0.314,0.195,0.473,0.163
		c2.897-0.227,5.822-0.126,8.689,0.305l83.598,12.582C325.583,454.129,325.885,453.889,325.936,453.554z M699.356,372.879
		l132.492,161.084l-135.737,19.189L563.622,392.065L699.356,372.879z"/>
	<path style="fill:#0D3C5D;" d="M819.214,1561.269H474.494c-0.343,0-0.624,0.28-0.624,0.624v156.716
		c0,18.59,15.126,33.715,33.715,33.715h311.629c0.344,0,0.624-0.28,0.624-0.624v-189.808
		C819.838,1561.55,819.558,1561.269,819.214,1561.269z"/>
	<path style="fill:#0D3C5D;" d="M1414.139,1561.269H830.647c-0.343,0-0.624,0.28-0.624,0.624v189.808
		c0,0.343,0.28,0.624,0.624,0.624h583.493c0.344,0,0.624-0.28,0.624-0.624v-189.808
		C1414.763,1561.55,1414.483,1561.269,1414.139,1561.269z"/>
	<path style="fill:#0D3C5D;" d="M1858.392,821.709H507.585c-18.589,0-33.715,15.126-33.715,33.715v695.037
		c0,0.344,0.28,0.624,0.624,0.624h1389.518c2.806,0,5.091,2.285,5.091,5.091c0,2.809-2.285,5.094-5.091,5.094h-438.441
		c-0.343,0-0.624,0.28-0.624,0.624v189.808c0,0.343,0.28,0.624,0.624,0.624h432.82c18.59,0,33.715-15.126,33.715-33.715V855.424
		C1892.107,836.835,1876.982,821.709,1858.392,821.709z M1295.533,1218.483l-266.719,154.723
		c-15.807,9.167-34.699,9.196-50.54,0.078c-15.837-9.123-25.291-25.479-25.291-43.754v-309.449c0-18.275,9.455-34.631,25.291-43.754
		c7.895-4.545,16.551-6.821,25.203-6.821c8.707,0,17.408,2.302,25.337,6.899l266.719,154.723
		c15.751,9.14,25.157,25.466,25.157,43.676C1320.69,1193.016,1311.284,1209.343,1295.533,1218.483z M1863.389,1455.004
		c0,23.949-19.484,43.432-43.432,43.432c-23.949,0-43.432-19.484-43.432-43.432V897.256c0-23.949,19.483-43.432,43.432-43.432
		c23.949,0,43.432,19.484,43.432,43.432V1455.004z M1863.389,1691.345c0,23.949-19.484,43.432-43.432,43.432
		c-23.949,0-43.432-19.484-43.432-43.432v-106.088h86.865V1691.345z"/>
	<path style="fill:#CFCFCF;" d="M405.086,496.626c-1.116-13.82-11.471-24.914-25.181-26.977l-105.788-15.922
		c-9.011-1.369-18.017,1.435-24.687,7.659c-6.667,6.224-10.07,15.009-9.335,24.1l16.558,205.018
		c0.733,9.091,5.503,17.216,13.081,22.29c4.967,3.323,10.684,5.033,16.478,5.033c3.05,0,6.124-0.475,9.118-1.435l101.863-32.695
		c13.201-4.236,21.642-16.847,20.526-30.67L405.086,496.626z M285.82,527.505c-8.443-12.18-5.405-28.962,6.775-37.408
		c12.178-8.441,28.96-5.411,37.408,6.775c4.09,5.9,5.64,13.042,4.36,20.107c-1.279,7.065-5.233,13.209-11.135,17.301
		C311.047,542.715,294.265,539.687,285.82,527.505z M334.672,679.945c-9.676,11.228-26.687,12.495-37.913,2.821
		c-11.23-9.678-12.494-26.684-2.818-37.912c5.308-6.164,12.826-9.325,20.385-9.325c6.214,0,12.458,2.139,17.525,6.504
		C343.081,651.709,344.345,668.715,334.672,679.945z M394.999,660.912c-6.305,0.541-11.983-4.224-12.514-10.594l-11.277-135.89
		c-0.531-6.37,4.222-11.983,10.592-12.514c6.366-0.543,11.983,4.224,12.512,10.595l11.279,135.892
		C406.119,654.771,401.366,660.384,394.999,660.912z"/>
	<path style="fill:#9C9C9C;" d="M307.951,540.306c5.527,0,11.111-1.622,15.988-5.004c12.746-8.836,15.924-26.394,7.086-39.142
		c-8.838-12.748-26.397-15.927-39.142-7.086c-12.745,8.836-15.924,26.395-7.086,39.142
		C290.25,536.084,299.03,540.306,307.951,540.306z M296.077,495.12c0.931-0.646,2.015-0.982,3.131-0.982
		c0.334,0,0.669,0.032,1.006,0.093c1.459,0.263,2.724,1.074,3.562,2.283l17.364,25.045c0.838,1.208,1.155,2.677,0.889,4.136
		c-0.263,1.457-1.075,2.724-2.285,3.562c-1.208,0.838-2.675,1.155-4.136,0.889c-1.457-0.263-2.724-1.074-3.562-2.285l-17.364-25.042
		c-0.838-1.208-1.152-2.678-0.889-4.136C294.058,497.222,294.869,495.958,296.077,495.12z"/>
	<path style="fill:#9C9C9C;" d="M312.219,634.347c-7.491,0.558-14.319,4-19.223,9.693c-10.122,11.749-8.801,29.544,2.951,39.671
		c5.303,4.568,11.837,6.804,18.338,6.804c7.91,0,15.776-3.308,21.332-9.756c10.124-11.749,8.799-29.547-2.953-39.671
		C326.974,636.187,319.717,633.799,312.219,634.347z M328.443,654.467l-19.89,23.089c-1.99,2.312-5.491,2.572-7.803,0.58
		c-1.113-0.96-1.788-2.304-1.9-3.783c-0.11-1.476,0.358-2.904,1.32-4.02l19.89-23.089c1.092-1.269,2.639-1.92,4.195-1.92
		c1.279,0,2.565,0.441,3.608,1.34C330.175,648.654,330.433,652.155,328.443,654.467z"/>
	<path style="fill:#616161;" d="M315.386,531.373c0.412,0.075,0.824,0.112,1.23,0.112c1.366,0,2.697-0.414,3.839-1.206
		c1.484-1.028,2.478-2.577,2.802-4.363c0.324-1.786-0.066-3.586-1.094-5.07l-17.364-25.045c-1.026-1.481-2.575-2.478-4.363-2.799
		c-1.781-0.331-3.586,0.063-5.07,1.094c-1.481,1.026-2.477,2.575-2.801,4.363c-0.324,1.786,0.066,3.586,1.094,5.069l17.364,25.043
		C312.051,530.055,313.6,531.049,315.386,531.373z"/>
	<path style="fill:#616161;" d="M328.677,645.719c-1.366-1.179-3.14-1.759-4.928-1.617c-1.81,0.134-3.457,0.962-4.633,2.329
		l-19.89,23.089c-2.441,2.831-2.122,7.118,0.711,9.561c1.276,1.101,2.852,1.64,4.419,1.64c1.907,0,3.803-0.797,5.143-2.351
		l19.89-23.089c1.176-1.366,1.751-3.116,1.617-4.928C330.871,648.543,330.043,646.896,328.677,645.719z"/>
	<path style="fill:#005882;" d="M1819.956,852.576c-24.636,0-44.679,20.044-44.679,44.68v557.748
		c0,24.636,20.043,44.68,44.679,44.68c24.636,0,44.68-20.044,44.68-44.68V897.256
		C1864.636,872.62,1844.592,852.576,1819.956,852.576z"/>
	<path style="fill:#005882;" d="M1864.012,1584.01H1775.9c-0.344,0-0.624,0.28-0.624,0.624v106.711
		c0,24.636,20.043,44.68,44.679,44.68c24.636,0,44.68-20.044,44.68-44.68v-106.711
		C1864.636,1584.29,1864.355,1584.01,1864.012,1584.01z"/>
	<path style="fill:#005882;" d="M1881.069,339.284l-86.189-107.371c-1.937-2.412-4.709-3.927-7.805-4.266
		c-3.096-0.344-6.132,0.543-8.541,2.477c-2.412,1.937-3.927,4.709-4.266,7.802c-0.341,3.096,0.541,6.129,2.475,8.541l86.19,107.371
		c1.937,2.414,4.709,3.929,7.805,4.268c0.434,0.046,0.868,0.071,1.296,0.071c2.638,0,5.172-0.885,7.245-2.548
		C1884.278,351.614,1885.081,344.282,1881.069,339.284z"/>
	<path style="fill:#005882;" d="M1519.603,270.085c-4.017-4.998-11.35-5.8-16.346-1.79c-2.412,1.936-3.927,4.709-4.266,7.805
		c-0.338,3.096,0.541,6.129,2.478,8.541l101.393,126.314c2.297,2.857,5.673,4.344,9.082,4.344c2.553,0,5.123-0.836,7.264-2.553
		c5.002-4.015,5.803-11.347,1.791-16.346L1519.603,270.085z"/>
	<path style="fill:#005882;" d="M1244.213,307.437c-4.02-5.004-11.352-5.803-16.346-1.79c-4.999,4.017-5.8,11.349-1.788,16.345
		l101.393,126.314c2.297,2.858,5.673,4.344,9.082,4.344c2.553,0,5.123-0.836,7.264-2.553c2.414-1.937,3.929-4.709,4.268-7.805
		c0.338-3.096-0.541-6.129-2.478-8.541L1244.213,307.437z"/>
	<path style="fill:#005882;" d="M970.52,346.489c-4.012-4.999-11.349-5.803-16.346-1.791c-4.998,4.012-5.8,11.345-1.788,16.346
		l101.396,126.311c1.937,2.414,4.709,3.929,7.803,4.268c0.436,0.046,0.867,0.071,1.299,0.071c2.636,0,5.169-0.884,7.242-2.548
		c2.414-1.936,3.929-4.709,4.268-7.805c0.339-3.094-0.541-6.129-2.478-8.541L970.52,346.489z"/>
	<path style="fill:#005882;" d="M698.525,385.198c-1.937-2.414-4.709-3.927-7.805-4.266c-3.087-0.351-6.129,0.541-8.541,2.478
		c-2.412,1.937-3.927,4.709-4.266,7.803c-0.341,3.096,0.541,6.129,2.475,8.541l101.396,126.314c1.937,2.412,4.709,3.927,7.805,4.266
		c0.434,0.049,0.867,0.073,1.298,0.073c2.636,0,5.169-0.885,7.243-2.548c4.998-4.015,5.803-11.347,1.79-16.346L698.525,385.198z"/>
	<path style="fill:#005882;" d="M429.247,427.985c-4.02-5.004-11.355-5.803-16.346-1.791c-2.412,1.937-3.927,4.709-4.265,7.805
		c-0.339,3.096,0.541,6.129,2.477,8.541l101.394,126.314c2.297,2.858,5.674,4.343,9.082,4.343c2.553,0,5.123-0.836,7.264-2.553
		c5.002-4.015,5.803-11.347,1.791-16.346L429.247,427.985z"/>
	<path style="fill:#005882;" d="M1815.001,617.446c-5.476-3.32-12.643-1.583-15.976,3.895l-71.527,117.647
		c-1.608,2.643-2.085,5.766-1.35,8.792c0.738,3.025,2.599,5.576,5.243,7.184c1.834,1.113,3.897,1.686,5.997,1.686
		c0.93,0,1.866-0.112,2.794-0.339c3.025-0.735,5.576-2.599,7.184-5.242l71.53-117.646
		C1822.226,627.945,1820.48,620.779,1815.001,617.446z"/>
	<path style="fill:#005882;" d="M1543.435,602.104c-2.638-1.602-5.766-2.085-8.789-1.347c-3.025,0.736-5.578,2.599-7.186,5.242
		l-84.146,138.402c-3.33,5.477-1.586,12.643,3.893,15.976c1.834,1.113,3.897,1.686,5.997,1.686c0.93,0,1.866-0.112,2.794-0.339
		c3.025-0.738,5.576-2.599,7.184-5.242l84.149-138.402c1.608-2.643,2.085-5.766,1.347-8.792
		C1547.942,606.262,1546.078,603.712,1543.435,602.104z"/>
	<path style="fill:#005882;" d="M1272.658,601.393c-2.648-1.608-5.771-2.085-8.792-1.347c-3.026,0.736-5.576,2.599-7.184,5.242
		l-84.148,138.402c-1.608,2.643-2.085,5.766-1.347,8.792c0.735,3.023,2.599,5.576,5.242,7.184c1.883,1.142,3.964,1.688,6.02,1.688
		c3.929,0,7.768-1.988,9.956-5.584l84.149-138.402C1279.881,611.89,1278.135,604.722,1272.658,601.393z"/>
	<path style="fill:#005882;" d="M995.129,600.381c-2.641-1.6-5.764-2.08-8.789-1.347c-3.026,0.736-5.579,2.599-7.187,5.242
		l-84.148,138.402c-3.327,5.476-1.581,12.643,3.895,15.976c1.834,1.113,3.896,1.685,5.998,1.685c0.93,0,1.866-0.112,2.794-0.338
		c3.026-0.736,5.576-2.599,7.184-5.243l84.148-138.402c1.607-2.643,2.085-5.766,1.347-8.792
		C999.636,604.542,997.772,601.989,995.129,600.381z"/>
	<path style="fill:#005882;" d="M717.848,604.123c-2.646-1.605-5.771-2.087-8.792-1.347c-3.026,0.738-5.576,2.599-7.184,5.242
		L617.724,746.42c-1.607,2.643-2.085,5.766-1.347,8.792c0.736,3.023,2.599,5.576,5.242,7.184c1.832,1.113,3.895,1.685,5.997,1.685
		c0.928,0,1.864-0.112,2.792-0.338c3.025-0.736,5.576-2.599,7.184-5.242l84.148-138.402
		C725.071,614.623,723.324,607.456,717.848,604.123z"/>
	<path style="fill:#E6E6E6;" d="M1895.778,591.787h-10.49c-0.343,0-0.624,0.28-0.624,0.624c0,0.343,0.28,0.624,0.624,0.624
		c11.057,0,20.889,5.756,26.3,15.396c5.413,9.642,5.206,21.033-0.555,30.472l-80.648,132.175h-137.084l108.821-178.343
		c0.117-0.193,0.122-0.434,0.01-0.629c-0.11-0.197-0.317-0.319-0.543-0.319h-137.186c-0.216,0-0.419,0.112-0.531,0.299
		l-109.218,178.991h-137.082l108.821-178.343c0.117-0.193,0.122-0.434,0.01-0.629c-0.11-0.197-0.317-0.319-0.543-0.319h-137.186
		c-0.217,0-0.419,0.112-0.533,0.299l-109.215,178.991H1141.84l108.821-178.343c0.117-0.193,0.122-0.434,0.01-0.629
		c-0.11-0.197-0.317-0.319-0.543-0.319h-137.184c-0.217,0-0.419,0.112-0.533,0.299l-109.218,178.991H866.111l108.821-178.343
		c0.117-0.193,0.122-0.434,0.009-0.629c-0.11-0.197-0.317-0.319-0.543-0.319H837.212c-0.217,0-0.419,0.112-0.534,0.299
		L727.463,771.078H590.379L699.2,592.735c0.119-0.193,0.124-0.434,0.012-0.629c-0.11-0.197-0.317-0.319-0.543-0.319H561.483
		c-0.217,0-0.419,0.112-0.534,0.299L451.731,771.078h-68.368c-10.821,0-20.804-4.324-28.112-12.173
		c-0.166-0.18-0.422-0.25-0.646-0.17l-85.147,27.33c-0.875,0.28-1.776,0.489-2.648,0.692l-0.397,0.092
		c-0.234,0.054-0.417,0.239-0.467,0.472c-0.051,0.234,0.036,0.478,0.224,0.624c5.096,4,11.196,6.114,17.642,6.114h1611.966
		c15.781,0,28.621-12.84,28.621-28.623V620.408C1924.4,604.628,1911.559,591.787,1895.778,591.787z"/>
	<path style="fill:#0A2C46;" d="M1878.273,792.812H301.315c-25.435,0-46.127,20.692-46.127,46.125v1049.949
		c0,25.433,20.692,46.124,46.127,46.124h1576.958c25.434,0,46.127-20.692,46.127-46.124V838.937
		C1924.4,813.504,1903.707,792.812,1878.273,792.812z M1890.86,1718.609c0,17.903-14.565,32.468-32.468,32.468h-432.82
		c-0.343,0-0.624,0.28-0.624,0.624v99.832c0,2.809-2.285,5.094-5.091,5.094c-2.809,0-5.094-2.285-5.094-5.094v-99.832
		c0-0.344-0.28-0.624-0.624-0.624H830.647c-0.343,0-0.624,0.28-0.624,0.624v99.832c0,2.809-2.285,5.094-5.094,5.094
		c-2.806,0-5.091-2.285-5.091-5.094v-99.832c0-0.344-0.28-0.624-0.624-0.624H507.585c-17.902,0-32.468-14.565-32.468-32.468
		v-156.716c0-0.343-0.28-0.624-0.624-0.624H340.026c-2.809,0-5.094-2.285-5.094-5.094c0-2.806,2.285-5.091,5.094-5.091h134.467
		c0.344,0,0.624-0.28,0.624-0.624V855.424c0-17.902,14.565-32.468,32.468-32.468h1350.807c17.903,0,32.468,14.565,32.468,32.468
		V1718.609z"/>
	<path style="fill:#0A2C46;" d="M698.136,592.087l-109.4,179.291c-0.117,0.193-0.122,0.434-0.01,0.629
		c0.11,0.198,0.317,0.319,0.543,0.319h138.545c0.217,0,0.419-0.112,0.534-0.3l109.398-179.291c0.117-0.193,0.122-0.434,0.009-0.629
		c-0.109-0.197-0.316-0.319-0.543-0.319H698.669C698.452,591.787,698.25,591.899,698.136,592.087z M709.351,603.987
		c0.829-0.202,1.666-0.302,2.497-0.302c1.876,0,3.717,0.512,5.352,1.506c4.889,2.974,6.448,9.371,3.474,14.261l-84.148,138.402
		c-1.432,2.358-3.71,4.022-6.412,4.68c-2.702,0.66-5.491,0.229-7.846-1.203c-2.358-1.435-4.022-3.713-4.68-6.414
		c-0.658-2.702-0.232-5.488,1.203-7.846l84.148-138.402C704.372,606.308,706.649,604.647,709.351,603.987z"/>
	<path style="fill:#0A2C46;" d="M973.865,592.087L864.467,771.378c-0.117,0.193-0.122,0.434-0.01,0.629
		c0.11,0.198,0.317,0.319,0.543,0.319h138.543c0.217,0,0.419-0.112,0.534-0.3l109.401-179.291c0.117-0.193,0.122-0.434,0.009-0.629
		c-0.109-0.197-0.317-0.319-0.543-0.319H974.398C974.182,591.787,973.979,591.899,973.865,592.087z M986.635,600.245
		c2.704-0.663,5.488-0.227,7.846,1.203c4.892,2.974,6.451,9.371,3.476,14.261l-84.148,138.402c-1.432,2.358-3.71,4.022-6.412,4.68
		c-2.714,0.66-5.493,0.232-7.849-1.203c-4.889-2.974-6.448-9.371-3.476-14.261l84.149-138.402
		C981.655,602.567,983.933,600.903,986.635,600.245z"/>
	<path style="fill:#0A2C46;" d="M1249.594,592.087l-109.398,179.291c-0.117,0.193-0.122,0.434-0.009,0.629
		c0.11,0.198,0.317,0.319,0.543,0.319h138.545c0.217,0,0.419-0.112,0.533-0.3l109.398-179.291c0.117-0.193,0.122-0.434,0.01-0.629
		c-0.11-0.197-0.317-0.319-0.543-0.319h-138.545C1249.911,591.787,1249.708,591.899,1249.594,592.087z M1264.161,601.256
		c0.831-0.202,1.666-0.302,2.497-0.302c1.876,0,3.717,0.511,5.352,1.505c4.889,2.972,6.448,9.369,3.476,14.261l-84.148,138.402
		c-2.972,4.889-9.366,6.456-14.26,3.476c-2.358-1.435-4.022-3.712-4.68-6.414c-0.658-2.702-0.232-5.488,1.203-7.847l84.149-138.402
		C1259.182,603.578,1261.46,601.914,1264.161,601.256z"/>
	<path style="fill:#0A2C46;" d="M1525.326,592.087l-109.398,179.291c-0.117,0.193-0.122,0.434-0.01,0.629
		c0.109,0.198,0.316,0.319,0.543,0.319h138.543c0.217,0,0.419-0.112,0.533-0.3l109.398-179.291c0.117-0.193,0.122-0.434,0.01-0.629
		c-0.11-0.197-0.317-0.319-0.543-0.319h-138.543C1525.642,591.787,1525.44,591.899,1525.326,592.087z M1534.941,601.968
		c2.709-0.658,5.491-0.229,7.847,1.203c2.358,1.432,4.022,3.71,4.679,6.412c0.658,2.702,0.232,5.491-1.203,7.849l-84.149,138.402
		c-1.432,2.358-3.71,4.02-6.411,4.68c-2.704,0.66-5.493,0.232-7.849-1.203c-4.889-2.974-6.448-9.371-3.474-14.261l84.146-138.402
		C1529.962,604.289,1532.239,602.625,1534.941,601.968z"/>
	<path style="fill:#0A2C46;" d="M1801.588,591.787c-0.217,0-0.419,0.112-0.534,0.299l-109.398,179.291
		c-0.117,0.193-0.122,0.434-0.01,0.629c0.109,0.198,0.316,0.319,0.543,0.319h138.546c0.216,0,0.419-0.112,0.533-0.3l80.831-132.475
		c5.995-9.829,6.212-21.69,0.577-31.73c-5.635-10.041-15.874-16.034-27.389-16.034H1801.588z M1817.829,632.774l-71.53,117.647
		c-1.432,2.358-3.71,4.022-6.411,4.68c-2.711,0.66-5.488,0.231-7.849-1.204c-2.358-1.432-4.019-3.71-4.677-6.411
		c-0.657-2.704-0.231-5.491,1.204-7.849l71.527-117.646c2.972-4.887,9.364-6.456,14.26-3.476
		C1819.245,621.487,1820.804,627.885,1817.829,632.774z"/>
	<path style="fill:#0A2C46;" d="M325.227,454.075l56.312,8.475c17.464,2.628,30.653,16.758,32.076,34.363
		c0,0,7.82,96.843,7.832,96.974l8.875,109.875c1.42,17.603-9.33,33.666-26.143,39.062l-49.571,15.91
		c-0.205,0.066-0.361,0.232-0.414,0.436c-0.054,0.207,0.002,0.426,0.148,0.582c7.544,8.107,17.852,12.572,29.023,12.572h68.718
		c0.217,0,0.419-0.112,0.534-0.3l109.4-179.291c0.117-0.193,0.122-0.434,0.01-0.629c-0.11-0.197-0.317-0.319-0.543-0.319h-129.77
		l128.393-18.151c0.221-0.029,0.412-0.18,0.494-0.39c0.08-0.209,0.044-0.448-0.1-0.624l-133.42-162.214
		c-0.139-0.166-0.351-0.256-0.57-0.219l-68.041,9.617c-17.503,2.473-31.072,15.961-33.766,33.557
		c-0.024,0.163,0.017,0.331,0.115,0.465C324.916,453.963,325.064,454.051,325.227,454.075z M409.875,434.136
		c0.302-2.765,1.654-5.24,3.805-6.967c1.912-1.535,4.207-2.28,6.487-2.28c3.042,0,6.058,1.325,8.105,3.876l101.396,126.314
		c3.584,4.463,2.867,11.008-1.595,14.592c-4.46,3.583-11.006,2.87-14.592-1.596L412.087,441.761
		C410.358,439.607,409.571,436.901,409.875,434.136z"/>
	<path style="fill:#0A2C46;" d="M695.371,554.216c0.119,0.144,0.297,0.227,0.482,0.227c0.029,0,0.058-0.003,0.088-0.007
		l137.181-19.393c0.222-0.029,0.412-0.181,0.495-0.39c0.08-0.21,0.043-0.448-0.1-0.624l-133.42-162.214
		c-0.139-0.168-0.363-0.268-0.57-0.22l-137.179,19.391c-0.221,0.029-0.412,0.181-0.494,0.39c-0.08,0.21-0.044,0.448,0.1,0.624
		L695.371,554.216z M682.959,384.384c1.851-1.488,4.112-2.276,6.468-2.276c0.385,0,0.772,0.02,1.159,0.063
		c2.763,0.302,5.238,1.654,6.965,3.805l101.396,126.314c3.584,4.465,2.867,11.011-1.595,14.592
		c-4.465,3.586-11.016,2.865-14.592-1.596L681.363,398.974C677.78,394.511,678.496,387.966,682.959,384.384z"/>
	<path style="fill:#0A2C46;" d="M968.386,515.622c0.12,0.144,0.297,0.227,0.482,0.227c0.029,0,0.058-0.003,0.088-0.008
		l137.181-19.393c0.222-0.029,0.412-0.18,0.495-0.39c0.08-0.21,0.044-0.448-0.1-0.624L973.114,333.22
		c-0.139-0.168-0.361-0.26-0.57-0.219l-137.181,19.391c-0.222,0.029-0.412,0.18-0.495,0.39c-0.08,0.21-0.044,0.449,0.1,0.624
		L968.386,515.622z M954.954,345.673c1.851-1.486,4.112-2.275,6.467-2.275c0.385,0,0.772,0.022,1.16,0.063
		c2.765,0.302,5.238,1.654,6.965,3.807l101.396,126.312c3.584,4.465,2.867,11.011-1.595,14.592
		c-2.154,1.727-4.875,2.497-7.625,2.212c-2.764-0.302-5.237-1.654-6.964-3.808L953.36,360.265
		C949.777,355.8,950.493,349.254,954.954,345.673z"/>
	<path style="fill:#0A2C46;" d="M1241.402,477.027c0.119,0.144,0.297,0.227,0.482,0.227c0.029,0,0.058-0.002,0.087-0.007
		l137.181-19.393c0.222-0.029,0.412-0.181,0.495-0.39c0.081-0.209,0.044-0.448-0.1-0.624L1246.13,294.626
		c-0.139-0.166-0.353-0.253-0.57-0.22l-137.181,19.391c-0.222,0.029-0.412,0.18-0.494,0.39c-0.08,0.21-0.044,0.448,0.1,0.624
		L1241.402,477.027z M1224.842,313.588c0.302-2.765,1.654-5.24,3.805-6.967c1.912-1.535,4.207-2.28,6.487-2.28
		c3.043,0,6.059,1.325,8.105,3.875l101.396,126.314c1.73,2.153,2.514,4.86,2.212,7.625c-0.302,2.765-1.654,5.24-3.807,6.967
		c-4.461,3.583-11.006,2.87-14.592-1.596l-101.394-126.314C1225.323,319.059,1224.537,316.353,1224.842,313.588z"/>
	<path style="fill:#0A2C46;" d="M1514.417,438.433c0.12,0.144,0.297,0.226,0.482,0.226c0.029,0,0.058-0.002,0.088-0.007
		l137.181-19.393c0.221-0.029,0.411-0.18,0.494-0.39c0.08-0.21,0.044-0.448-0.1-0.624l-133.417-162.214
		c-0.137-0.168-0.366-0.263-0.57-0.219l-137.181,19.391c-0.222,0.029-0.412,0.181-0.494,0.39c-0.08,0.21-0.044,0.449,0.1,0.624
		L1514.417,438.433z M1500.232,276.236c0.302-2.765,1.654-5.24,3.805-6.967c1.912-1.535,4.207-2.281,6.487-2.281
		c3.042,0,6.058,1.326,8.105,3.876l101.396,126.314c3.583,4.463,2.867,11.008-1.596,14.592c-4.456,3.583-11.006,2.87-14.592-1.596
		l-101.394-126.314C1500.714,281.707,1499.927,279.001,1500.232,276.236z"/>
	<path style="fill:#0A2C46;" d="M1787.432,399.839c0.119,0.144,0.297,0.227,0.482,0.227c0.029,0,0.058-0.003,0.087-0.008
		l82.879-11.715c11.401-1.613,20.697-8.982,24.872-19.713c4.173-10.728,2.3-22.444-5.013-31.338l-98.58-119.856
		c-0.139-0.166-0.36-0.256-0.57-0.219l-137.181,19.393c-0.222,0.029-0.412,0.18-0.495,0.39c-0.08,0.21-0.044,0.448,0.1,0.624
		L1787.432,399.839z M1775.506,238.063c0.304-2.765,1.656-5.237,3.807-6.965c1.852-1.489,4.113-2.275,6.468-2.275
		c0.383,0,0.77,0.019,1.157,0.063c2.765,0.302,5.24,1.654,6.967,3.805l86.19,107.371c3.583,4.465,2.867,11.011-1.596,14.592
		c-2.151,1.727-4.848,2.517-7.625,2.212c-2.765-0.302-5.24-1.654-6.967-3.808l-86.19-107.371
		C1775.988,243.535,1775.203,240.828,1775.506,238.063z"/>
	<path style="fill:#FFFFFF;" d="M381.697,500.672c-7.057,0.587-12.319,6.807-11.732,13.859l11.276,135.89
		c0.558,6.697,6.185,11.779,12.789,11.779c0.353,0,0.711-0.015,1.07-0.044c3.403-0.283,6.502-1.883,8.723-4.509
		c2.224-2.624,3.291-5.944,3.008-9.347l-11.279-135.893C394.969,505.351,388.733,500.099,381.697,500.672z"/>
	<path style="fill:#9C9C9C;" d="M431.564,703.66l-16.707-206.85c-1.469-18.183-15.094-32.78-33.133-35.493L241.815,440.26
		c-2.957-0.445-5.971-0.55-8.972-0.314c-10.212,0.806-19.915,5.783-26.621,13.654c-6.755,7.93-10.012,18.032-9.172,28.448
		l21.9,271.144c0.914,11.328,6.697,21.661,15.861,28.351c6.773,4.943,14.85,7.538,23.05,7.538c2.948,0,5.912-0.336,8.836-1.018
		l0.397-0.093c0.897-0.207,1.823-0.421,2.745-0.716l85.147-27.33l49.572-15.91C421.926,738.44,433.032,721.845,431.564,703.66z
		 M396.813,682.508l-101.864,32.694c-8.316,2.67-17.257,1.413-24.521-3.447c-7.262-4.86-11.829-12.643-12.533-21.355
		l-16.558-205.018c-0.704-8.709,2.558-17.123,8.945-23.086c5.328-4.972,12.207-7.659,19.359-7.659c1.422,0,2.855,0.107,4.29,0.322
		l105.788,15.922c13.135,1.978,23.054,12.604,24.124,25.847l12.633,156.402C417.544,666.369,409.459,678.45,396.813,682.508z"/>
	<path style="fill:#E6E6E6;" d="M1864.012,1549.837H340.026c-3.496,0-6.341,2.843-6.341,6.339c0,3.496,2.845,6.341,6.341,6.341
		h478.564v289.016c0,3.496,2.843,6.341,6.339,6.341c3.496,0,6.341-2.845,6.341-6.341v-289.016h582.245v289.016
		c0,3.496,2.845,6.341,6.341,6.341s6.339-2.845,6.339-6.341v-289.016h437.817c3.496,0,6.339-2.845,6.339-6.341
		C1870.351,1552.68,1867.508,1549.837,1864.012,1549.837z"/>
	<path style="fill:#E6E6E6;" d="M1003.477,1381.352c8.918,0,17.839-2.355,25.961-7.069l266.719-154.723
		c16.144-9.361,25.781-26.092,25.781-44.753c0-18.662-9.637-35.393-25.781-44.755l-266.719-154.723
		c-16.197-9.398-35.559-9.43-51.785-0.08c-16.229,9.347-25.918,26.107-25.918,44.833v309.449c0,18.726,9.688,35.486,25.918,44.833
		C985.743,1379.024,994.61,1381.352,1003.477,1381.352z M980.398,1029.774c0-11.449,5.793-21.296,15.89-27.013
		c4.938-2.797,10.434-4.276,15.082-4.276c2.83,0,5.347,0.548,7.233,1.681c7.78,4.668,156.433,89.846,219.985,126.251
		c5.128,2.938,5.696,8.107,4.624,11.639c-1.079,3.549-4.441,7.539-10.375,7.143l-219.907-15.269
		c-18.241-1.269-32.531-16.587-32.531-34.872V1029.774z"/>
	<path style="fill:#FFFFFF;" d="M1239.206,1125.336c-63.547-36.404-212.19-121.576-219.96-126.241
		c-5.355-3.206-15.259-2.127-23.571,2.58c-10.502,5.946-16.524,16.187-16.524,28.1v65.284c0,18.938,14.799,34.802,33.69,36.114
		l219.907,15.269c0.302,0.022,0.599,0.031,0.891,0.031c5.737,0,9.52-3.956,10.762-8.056
		C1245.991,1133.19,1243.952,1128.054,1239.206,1125.336z"/>
</g>
</svg>
